<svg xmlns="http://www.w3.org/2000/svg" width="700" height="512" viewBox="0 0 700 512"><defs><clipPath id="a"><path d="M0 0h700v512H0z"/></clipPath></defs><g clip-path="url(#a)" data-name="SVG – wide"><path fill="#ecf0f1" d="M559.225 491.594H141.37A26.369 26.369 0 0 1 115 465.225V118.364h470.595v346.861a26.369 26.369 0 0 1-26.37 26.369z" data-name="Path 1871"/><path fill="#687492" d="M585.595 118.364H115V47.37A26.369 26.369 0 0 1 141.37 21h417.855a26.369 26.369 0 0 1 26.37 26.37z" data-name="Path 1872"/><path fill="#e64c3c" d="M147.454 53.454h32.454v32.454h-32.454z" data-name="Path 1873"/><path fill="#f0c419" d="M212.364 53.454h32.454v32.454h-32.454z" data-name="Path 1874"/><path fill="#24ae5f" d="M277.274 53.454h32.454v32.454h-32.454z" data-name="Path 1875"/><path fill="#26b99a" d="M155.569 158.933h389.462v154.16H155.569z" data-name="Path 1876"/><g fill="#fff" data-name="Group 644"><path d="M277.275 280.639a8.11 8.11 0 0 1-5.738-13.85l32.456-32.45a8.113 8.113 0 1 1 11.473 11.473l-32.455 32.454a8.093 8.093 0 0 1-5.736 2.373z" data-name="Path 1877"/><path d="M342.181 280.639a8.091 8.091 0 0 1-5.736-2.377l-32.454-32.454a8.112 8.112 0 1 1 11.474-11.469l32.454 32.455a8.113 8.113 0 0 1-5.738 13.845z" data-name="Path 1878"/><path d="M325.954 264.411a8.11 8.11 0 0 1-5.736-13.849l32.454-32.454a8.113 8.113 0 1 1 11.473 11.473l-32.455 32.454a8.1 8.1 0 0 1-5.736 2.377z" data-name="Path 1879"/><path d="M390.866 264.408a8.091 8.091 0 0 1-5.736-2.377l-32.454-32.454a8.112 8.112 0 1 1 11.472-11.469l32.45 32.454a8.113 8.113 0 0 1-5.736 13.849zm40.382-40.569h-15.85a8.3 8.3 0 0 1-8.3-8.3v-15.851a8.3 8.3 0 0 1 8.3-8.3h15.85a8.3 8.3 0 0 1 8.3 8.3v15.853a8.3 8.3 0 0 1-8.3 8.3z" data-name="Path 1880"/></g><g data-name="Group 645"><path fill="#bdc3c7" d="M447.661 361.776H155.568a8.114 8.114 0 0 1 0-16.228h292.093a8.114 8.114 0 1 1 0 16.228zm97.364 0h-56.8a8.114 8.114 0 0 1 0-16.228h56.8a8.114 8.114 0 1 1 0 16.228zm0 32.454H252.932a8.114 8.114 0 1 1 0-16.228h292.094a8.114 8.114 0 1 1 0 16.228zm-332.662 0h-56.8a8.114 8.114 0 0 1 0-16.228h56.8a8.114 8.114 0 1 1 0 16.228zm235.3 32.454H155.568a8.114 8.114 0 0 1 0-16.228h292.093a8.114 8.114 0 1 1 0 16.228zm97.364 0h-56.8a8.114 8.114 0 0 1 0-16.228h56.8a8.114 8.114 0 1 1 0 16.228zm0 32.455H252.932a8.114 8.114 0 1 1 0-16.228h292.094a8.114 8.114 0 1 1 0 16.228zm-332.662 0h-56.8a8.114 8.114 0 0 1 0-16.228h56.8a8.114 8.114 0 1 1 0 16.228z" data-name="Path 1881"/></g></g></svg>